# xmcd CD database file
#
# Track frame offsets:
#	150
#	15540
#	31173
#	51560
#	68297
#	88164
#	101519
#	124582
#	149123
#	164206
#
# Disc length: 2451 seconds
#
# Revision: 0
# Processed by: cddbd v1.5.2PL0 Copyright (c) Steve Scherf et al.
# Submitted via: CDex 1.70beta2
#
DISCID=8a09910a
DTITLE=Lou Rhodes - Bloom
DYEAR=2007
DGENRE=Jazz
TTITLE0=The Rain
TTITLE1=Greatness In a Speck Of dust
TTITLE2=Icarus
TTITLE3=Never Loved A Man (Like You)
TTITLE4=All We Are
TTITLE5=Chase All My Winters Away
TTITLE6=This Love
TTITLE7=They Say
TTITLE8=Sister Moon
TTITLE9=Bloom
EXTD=YEAR: 2007
EXTT0=
EXTT1=
EXTT2=
EXTT3=
EXTT4=
EXTT5=
EXTT6=
EXTT7=
EXTT8=
EXTT9=
PLAYORDER=
